<svg xmlns="http://www.w3.org/2000/svg" width="788" height="788" viewBox="0 0 788 788" fill="none"><circle cx="394.415" cy="394.415" r="77.9705" stroke="#6C6C6C" stroke-width="0.829474"></circle><circle cx="394" cy="394" r="3.30034" fill="#D9D9D9" stroke="#6C6C6C" stroke-width="0.03511"></circle><circle cx="394" cy="394" r="168.798" stroke="#6C6C6C" stroke-width="0.829474"></circle><circle cx="394" cy="394" r="246.768" stroke="#6C6C6C" stroke-width="0.829474"></circle><circle cx="394" cy="394" r="315.615" stroke="#6C6C6C" stroke-width="0.829474"></circle><circle cx="394" cy="394" r="393.585" stroke="#6C6C6C" stroke-width="0.829474"></circle><path d="M392.757 316.031C414.815 314.922 429.55 323.748 431.742 324.86C433.134 325.567 446.81 332.62 455.381 345.062L394.073 394.347L392.757 316.031Z" fill="#FFC349"></path><path d="M523.812 285.339C552.428 315.615 559.918 360.054 560.308 362.48C560.557 364.022 568.603 397.319 556.99 440.037L393.999 394.306L523.812 285.339Z" fill="#85C950"></path><path d="M557.128 439.749C548.207 480.443 515.689 511.642 513.903 513.331C512.768 514.404 490.177 540.062 448.33 554.504L394 393.77L557.128 439.749Z" fill="#048DAD"></path><path d="M448.505 554.405C409.938 570.155 365.794 561.089 363.39 560.577C361.862 560.252 327.907 555.729 292.267 529.472L394.001 393.584L448.505 554.405Z" fill="#0079D5"></path><path d="M292.904 529.493C258.057 506.663 240.487 465.164 239.545 462.894C238.946 461.451 223.412 430.921 224.823 386.675L394.441 393.39L292.904 529.493Z" fill="#FF5A34"></path><path d="M151.379 191.446C192.194 141.807 245.524 114.621 245.524 114.621C245.524 114.621 310.223 75.4824 395.181 77.9712V393.332L151.379 191.446Z" fill="#7B00FF"></path><path d="M0.415102 376.58C4.56247 287.411 32.7648 230.179 32.7648 230.179C32.7648 230.179 62.2114 158.844 135.619 96.6335L395.244 393.585L0.415102 376.58Z" fill="#3C0E6E"></path><path d="M204.011 315.975V314.523L210.095 308.652C210.636 308.139 211.035 307.691 211.291 307.307C211.561 306.908 211.739 306.545 211.825 306.218C211.924 305.876 211.974 305.549 211.974 305.236C211.974 304.467 211.704 303.862 211.163 303.421C210.622 302.98 209.832 302.759 208.793 302.759C207.996 302.759 207.277 302.894 206.637 303.165C205.996 303.421 205.441 303.826 204.971 304.382L203.52 303.122C204.089 302.396 204.85 301.841 205.804 301.457C206.772 301.058 207.832 300.859 208.985 300.859C210.024 300.859 210.928 301.03 211.697 301.371C212.465 301.699 213.056 302.175 213.469 302.802C213.896 303.428 214.109 304.168 214.109 305.022C214.109 305.506 214.045 305.983 213.917 306.453C213.789 306.922 213.547 307.42 213.191 307.947C212.835 308.474 212.323 309.064 211.654 309.719L206.231 314.95L205.719 314.117H214.75V315.975H204.011ZM221.33 316.145C220.277 316.145 219.252 315.982 218.256 315.654C217.274 315.327 216.469 314.886 215.843 314.331L216.825 312.644C217.323 313.114 217.971 313.498 218.768 313.797C219.565 314.096 220.412 314.245 221.309 314.245C222.447 314.245 223.323 314.003 223.935 313.519C224.547 313.035 224.853 312.388 224.853 311.577C224.853 311.021 224.718 310.537 224.447 310.125C224.177 309.712 223.707 309.399 223.038 309.185C222.383 308.958 221.48 308.844 220.327 308.844H216.932L217.722 301.03H226.155V302.887H218.512L219.622 301.841L219.003 308.011L217.893 306.986H220.775C222.27 306.986 223.472 307.178 224.383 307.563C225.294 307.947 225.956 308.481 226.369 309.164C226.781 309.833 226.988 310.609 226.988 311.491C226.988 312.345 226.781 313.128 226.369 313.84C225.956 314.537 225.33 315.099 224.49 315.526C223.664 315.939 222.611 316.145 221.33 316.145ZM230.606 315.975L240.811 301.03H242.455L232.25 315.975H230.606ZM231.801 309.057C231.118 309.057 230.513 308.886 229.987 308.545C229.46 308.203 229.047 307.726 228.748 307.114C228.464 306.502 228.321 305.791 228.321 304.979C228.321 304.168 228.464 303.456 228.748 302.844C229.047 302.232 229.46 301.756 229.987 301.414C230.513 301.072 231.118 300.902 231.801 300.902C232.499 300.902 233.104 301.072 233.616 301.414C234.143 301.756 234.548 302.232 234.833 302.844C235.118 303.456 235.26 304.168 235.26 304.979C235.26 305.791 235.118 306.502 234.833 307.114C234.548 307.726 234.143 308.203 233.616 308.545C233.104 308.886 232.499 309.057 231.801 309.057ZM231.801 307.84C232.456 307.84 232.968 307.591 233.338 307.093C233.709 306.581 233.894 305.876 233.894 304.979C233.894 304.083 233.709 303.385 233.338 302.887C232.968 302.375 232.456 302.119 231.801 302.119C231.161 302.119 230.648 302.375 230.264 302.887C229.894 303.385 229.709 304.083 229.709 304.979C229.709 305.862 229.894 306.559 230.264 307.072C230.648 307.584 231.161 307.84 231.801 307.84ZM241.259 316.103C240.576 316.103 239.971 315.932 239.445 315.59C238.918 315.249 238.512 314.772 238.228 314.16C237.943 313.548 237.801 312.836 237.801 312.025C237.801 311.214 237.943 310.502 238.228 309.89C238.512 309.278 238.918 308.801 239.445 308.459C239.971 308.118 240.576 307.947 241.259 307.947C241.957 307.947 242.562 308.118 243.074 308.459C243.601 308.801 244.006 309.278 244.291 309.89C244.59 310.502 244.739 311.214 244.739 312.025C244.739 312.836 244.59 313.548 244.291 314.16C244.006 314.772 243.601 315.249 243.074 315.59C242.562 315.932 241.957 316.103 241.259 316.103ZM241.259 314.886C241.9 314.886 242.405 314.637 242.775 314.139C243.159 313.626 243.352 312.922 243.352 312.025C243.352 311.142 243.159 310.445 242.775 309.933C242.405 309.42 241.9 309.164 241.259 309.164C240.619 309.164 240.106 309.42 239.722 309.933C239.352 310.431 239.167 311.128 239.167 312.025C239.167 312.922 239.352 313.626 239.722 314.139C240.106 314.637 240.619 314.886 241.259 314.886Z" fill="white"></path><path d="M408.145 352.642C407.092 352.642 406.067 352.478 405.07 352.15C404.088 351.823 403.284 351.382 402.658 350.827L403.64 349.14C404.138 349.61 404.786 349.994 405.583 350.293C406.38 350.592 407.227 350.741 408.123 350.741C409.262 350.741 410.137 350.499 410.749 350.015C411.362 349.532 411.668 348.884 411.668 348.073C411.668 347.518 411.532 347.034 411.262 346.621C410.991 346.208 410.522 345.895 409.853 345.681C409.198 345.454 408.294 345.34 407.141 345.34H403.747L404.537 337.526H412.97V339.383H405.327L406.437 338.337L405.818 344.507L404.707 343.482H407.59C409.084 343.482 410.287 343.675 411.198 344.059C412.109 344.443 412.771 344.977 413.183 345.66C413.596 346.329 413.803 347.105 413.803 347.987C413.803 348.841 413.596 349.624 413.183 350.336C412.771 351.033 412.144 351.595 411.305 352.022C410.479 352.435 409.426 352.642 408.145 352.642ZM417.42 352.471L427.626 337.526H429.27L419.064 352.471H417.42ZM418.616 345.553C417.933 345.553 417.328 345.383 416.801 345.041C416.275 344.699 415.862 344.223 415.563 343.61C415.278 342.998 415.136 342.287 415.136 341.475C415.136 340.664 415.278 339.953 415.563 339.34C415.862 338.728 416.275 338.252 416.801 337.91C417.328 337.568 417.933 337.398 418.616 337.398C419.313 337.398 419.918 337.568 420.431 337.91C420.957 338.252 421.363 338.728 421.648 339.34C421.932 339.953 422.075 340.664 422.075 341.475C422.075 342.287 421.932 342.998 421.648 343.61C421.363 344.223 420.957 344.699 420.431 345.041C419.918 345.383 419.313 345.553 418.616 345.553ZM418.616 344.336C419.271 344.336 419.783 344.087 420.153 343.589C420.523 343.077 420.708 342.372 420.708 341.475C420.708 340.579 420.523 339.881 420.153 339.383C419.783 338.871 419.271 338.615 418.616 338.615C417.975 338.615 417.463 338.871 417.079 339.383C416.709 339.881 416.524 340.579 416.524 341.475C416.524 342.358 416.709 343.055 417.079 343.568C417.463 344.08 417.975 344.336 418.616 344.336ZM428.074 352.599C427.391 352.599 426.786 352.428 426.259 352.086C425.733 351.745 425.327 351.268 425.042 350.656C424.758 350.044 424.615 349.332 424.615 348.521C424.615 347.71 424.758 346.998 425.042 346.386C425.327 345.774 425.733 345.297 426.259 344.956C426.786 344.614 427.391 344.443 428.074 344.443C428.771 344.443 429.376 344.614 429.889 344.956C430.415 345.297 430.821 345.774 431.106 346.386C431.405 346.998 431.554 347.71 431.554 348.521C431.554 349.332 431.405 350.044 431.106 350.656C430.821 351.268 430.415 351.745 429.889 352.086C429.376 352.428 428.771 352.599 428.074 352.599ZM428.074 351.382C428.714 351.382 429.22 351.133 429.59 350.635C429.974 350.122 430.166 349.418 430.166 348.521C430.166 347.639 429.974 346.941 429.59 346.429C429.22 345.916 428.714 345.66 428.074 345.66C427.433 345.66 426.921 345.916 426.537 346.429C426.167 346.927 425.982 347.624 425.982 348.521C425.982 349.418 426.167 350.122 426.537 350.635C426.921 351.133 427.433 351.382 428.074 351.382Z" fill="white"></path><path d="M316.819 248.787V247.335L322.904 241.464C323.445 240.952 323.843 240.503 324.1 240.119C324.37 239.721 324.548 239.358 324.633 239.03C324.733 238.689 324.783 238.361 324.783 238.048C324.783 237.279 324.512 236.675 323.971 236.233C323.431 235.792 322.641 235.572 321.602 235.572C320.805 235.572 320.086 235.707 319.445 235.977C318.805 236.233 318.25 236.639 317.78 237.194L316.328 235.934C316.898 235.209 317.659 234.653 318.613 234.269C319.581 233.871 320.641 233.671 321.794 233.671C322.833 233.671 323.737 233.842 324.505 234.184C325.274 234.511 325.864 234.988 326.277 235.614C326.704 236.24 326.918 236.981 326.918 237.835C326.918 238.319 326.854 238.795 326.726 239.265C326.598 239.735 326.356 240.233 326 240.76C325.644 241.286 325.131 241.877 324.463 242.532L319.04 247.762L318.527 246.93H327.558V248.787H316.819ZM335.399 248.958C334.232 248.958 333.186 248.659 332.26 248.061C331.349 247.463 330.624 246.595 330.083 245.457C329.556 244.318 329.293 242.937 329.293 241.315C329.293 239.692 329.556 238.311 330.083 237.173C330.624 236.034 331.349 235.166 332.26 234.568C333.186 233.97 334.232 233.671 335.399 233.671C336.552 233.671 337.591 233.97 338.516 234.568C339.441 235.166 340.167 236.034 340.694 237.173C341.22 238.311 341.484 239.692 341.484 241.315C341.484 242.937 341.22 244.318 340.694 245.457C340.167 246.595 339.441 247.463 338.516 248.061C337.591 248.659 336.552 248.958 335.399 248.958ZM335.399 247.058C336.182 247.058 336.865 246.844 337.448 246.417C338.046 245.99 338.509 245.35 338.836 244.496C339.178 243.642 339.349 242.581 339.349 241.315C339.349 240.048 339.178 238.987 338.836 238.133C338.509 237.279 338.046 236.639 337.448 236.212C336.865 235.785 336.182 235.572 335.399 235.572C334.616 235.572 333.926 235.785 333.328 236.212C332.73 236.639 332.26 237.279 331.919 238.133C331.591 238.987 331.428 240.048 331.428 241.315C331.428 242.581 331.591 243.642 331.919 244.496C332.26 245.35 332.73 245.99 333.328 246.417C333.926 246.844 334.616 247.058 335.399 247.058ZM345.583 248.787L355.788 233.842H357.432L347.227 248.787H345.583ZM346.778 241.87C346.095 241.87 345.49 241.699 344.963 241.357C344.437 241.016 344.024 240.539 343.725 239.927C343.44 239.315 343.298 238.603 343.298 237.792C343.298 236.981 343.44 236.269 343.725 235.657C344.024 235.045 344.437 234.568 344.963 234.226C345.49 233.885 346.095 233.714 346.778 233.714C347.476 233.714 348.081 233.885 348.593 234.226C349.12 234.568 349.525 235.045 349.81 235.657C350.095 236.269 350.237 236.981 350.237 237.792C350.237 238.603 350.095 239.315 349.81 239.927C349.525 240.539 349.12 241.016 348.593 241.357C348.081 241.699 347.476 241.87 346.778 241.87ZM346.778 240.653C347.433 240.653 347.945 240.404 348.315 239.906C348.685 239.393 348.87 238.689 348.87 237.792C348.87 236.895 348.685 236.198 348.315 235.7C347.945 235.187 347.433 234.931 346.778 234.931C346.138 234.931 345.625 235.187 345.241 235.7C344.871 236.198 344.686 236.895 344.686 237.792C344.686 238.674 344.871 239.372 345.241 239.884C345.625 240.397 346.138 240.653 346.778 240.653ZM356.236 248.915C355.553 248.915 354.948 248.744 354.421 248.403C353.895 248.061 353.489 247.584 353.205 246.972C352.92 246.36 352.778 245.649 352.778 244.837C352.778 244.026 352.92 243.314 353.205 242.702C353.489 242.09 353.895 241.614 354.421 241.272C354.948 240.93 355.553 240.76 356.236 240.76C356.934 240.76 357.539 240.93 358.051 241.272C358.578 241.614 358.983 242.09 359.268 242.702C359.567 243.314 359.716 244.026 359.716 244.837C359.716 245.649 359.567 246.36 359.268 246.972C358.983 247.584 358.578 248.061 358.051 248.403C357.539 248.744 356.934 248.915 356.236 248.915ZM356.236 247.698C356.877 247.698 357.382 247.449 357.752 246.951C358.136 246.439 358.329 245.734 358.329 244.837C358.329 243.955 358.136 243.257 357.752 242.745C357.382 242.233 356.877 241.976 356.236 241.976C355.596 241.976 355.083 242.233 354.699 242.745C354.329 243.243 354.144 243.941 354.144 244.837C354.144 245.734 354.329 246.439 354.699 246.951C355.083 247.449 355.596 247.698 356.236 247.698Z" fill="white"></path><path d="M287.224 451.18V437.089L288.142 438.092H283.85V436.235H289.337V451.18H287.224ZM298.713 451.35C297.545 451.35 296.499 451.052 295.574 450.454C294.663 449.856 293.937 448.988 293.396 447.849C292.87 446.71 292.606 445.33 292.606 443.707C292.606 442.085 292.87 440.704 293.396 439.565C293.937 438.427 294.663 437.558 295.574 436.961C296.499 436.363 297.545 436.064 298.713 436.064C299.865 436.064 300.904 436.363 301.83 436.961C302.755 437.558 303.481 438.427 304.007 439.565C304.534 440.704 304.797 442.085 304.797 443.707C304.797 445.33 304.534 446.71 304.007 447.849C303.481 448.988 302.755 449.856 301.83 450.454C300.904 451.052 299.865 451.35 298.713 451.35ZM298.713 449.45C299.495 449.45 300.179 449.237 300.762 448.81C301.36 448.383 301.823 447.742 302.15 446.888C302.491 446.034 302.662 444.974 302.662 443.707C302.662 442.44 302.491 441.38 302.15 440.526C301.823 439.672 301.36 439.032 300.762 438.605C300.179 438.178 299.495 437.964 298.713 437.964C297.93 437.964 297.239 438.178 296.642 438.605C296.044 439.032 295.574 439.672 295.233 440.526C294.905 441.38 294.741 442.44 294.741 443.707C294.741 444.974 294.905 446.034 295.233 446.888C295.574 447.742 296.044 448.383 296.642 448.81C297.239 449.237 297.93 449.45 298.713 449.45ZM308.896 451.18L319.102 436.235H320.746L310.54 451.18H308.896ZM310.092 444.262C309.409 444.262 308.804 444.092 308.277 443.75C307.751 443.408 307.338 442.931 307.039 442.319C306.754 441.707 306.612 440.996 306.612 440.184C306.612 439.373 306.754 438.662 307.039 438.049C307.338 437.437 307.751 436.961 308.277 436.619C308.804 436.277 309.409 436.107 310.092 436.107C310.789 436.107 311.394 436.277 311.907 436.619C312.433 436.961 312.839 437.437 313.124 438.049C313.408 438.662 313.551 439.373 313.551 440.184C313.551 440.996 313.408 441.707 313.124 442.319C312.839 442.931 312.433 443.408 311.907 443.75C311.394 444.092 310.789 444.262 310.092 444.262ZM310.092 443.045C310.747 443.045 311.259 442.796 311.629 442.298C311.999 441.786 312.184 441.081 312.184 440.184C312.184 439.288 311.999 438.59 311.629 438.092C311.259 437.58 310.747 437.324 310.092 437.324C309.451 437.324 308.939 437.58 308.555 438.092C308.185 438.59 308 439.288 308 440.184C308 441.067 308.185 441.764 308.555 442.277C308.939 442.789 309.451 443.045 310.092 443.045ZM319.55 451.308C318.867 451.308 318.262 451.137 317.735 450.795C317.209 450.454 316.803 449.977 316.518 449.365C316.234 448.753 316.091 448.041 316.091 447.23C316.091 446.419 316.234 445.707 316.518 445.095C316.803 444.483 317.209 444.006 317.735 443.665C318.262 443.323 318.867 443.152 319.55 443.152C320.247 443.152 320.852 443.323 321.365 443.665C321.891 444.006 322.297 444.483 322.582 445.095C322.88 445.707 323.03 446.419 323.03 447.23C323.03 448.041 322.88 448.753 322.582 449.365C322.297 449.977 321.891 450.454 321.365 450.795C320.852 451.137 320.247 451.308 319.55 451.308ZM319.55 450.091C320.19 450.091 320.696 449.842 321.066 449.344C321.45 448.831 321.642 448.127 321.642 447.23C321.642 446.347 321.45 445.65 321.066 445.138C320.696 444.625 320.19 444.369 319.55 444.369C318.909 444.369 318.397 444.625 318.013 445.138C317.643 445.636 317.458 446.333 317.458 447.23C317.458 448.127 317.643 448.831 318.013 449.344C318.397 449.842 318.909 450.091 319.55 450.091Z" fill="white"></path><path d="M360.218 503.436V489.345L361.136 490.348H356.845V488.491H362.332V503.436H360.218ZM371.707 503.606C370.54 503.606 369.493 503.307 368.568 502.71C367.657 502.112 366.931 501.244 366.391 500.105C365.864 498.966 365.601 497.586 365.601 495.963C365.601 494.34 365.864 492.96 366.391 491.821C366.931 490.683 367.657 489.814 368.568 489.216C369.493 488.619 370.54 488.32 371.707 488.32C372.86 488.32 373.899 488.619 374.824 489.216C375.749 489.814 376.475 490.683 377.001 491.821C377.528 492.96 377.791 494.34 377.791 495.963C377.791 497.586 377.528 498.966 377.001 500.105C376.475 501.244 375.749 502.112 374.824 502.71C373.899 503.307 372.86 503.606 371.707 503.606ZM371.707 501.706C372.49 501.706 373.173 501.493 373.756 501.066C374.354 500.639 374.817 499.998 375.144 499.144C375.486 498.29 375.656 497.23 375.656 495.963C375.656 494.696 375.486 493.636 375.144 492.782C374.817 491.928 374.354 491.287 373.756 490.86C373.173 490.433 372.49 490.22 371.707 490.22C370.924 490.22 370.234 490.433 369.636 490.86C369.038 491.287 368.568 491.928 368.227 492.782C367.899 493.636 367.736 494.696 367.736 495.963C367.736 497.23 367.899 498.29 368.227 499.144C368.568 499.998 369.038 500.639 369.636 501.066C370.234 501.493 370.924 501.706 371.707 501.706ZM381.89 503.436L392.096 488.491H393.74L383.534 503.436H381.89ZM383.086 496.518C382.403 496.518 381.798 496.347 381.271 496.006C380.745 495.664 380.332 495.187 380.033 494.575C379.748 493.963 379.606 493.252 379.606 492.44C379.606 491.629 379.748 490.917 380.033 490.305C380.332 489.693 380.745 489.216 381.271 488.875C381.798 488.533 382.403 488.362 383.086 488.362C383.783 488.362 384.388 488.533 384.901 488.875C385.427 489.216 385.833 489.693 386.118 490.305C386.402 490.917 386.545 491.629 386.545 492.44C386.545 493.252 386.402 493.963 386.118 494.575C385.833 495.187 385.427 495.664 384.901 496.006C384.388 496.347 383.783 496.518 383.086 496.518ZM383.086 495.301C383.741 495.301 384.253 495.052 384.623 494.554C384.993 494.042 385.178 493.337 385.178 492.44C385.178 491.544 384.993 490.846 384.623 490.348C384.253 489.836 383.741 489.579 383.086 489.579C382.446 489.579 381.933 489.836 381.549 490.348C381.179 490.846 380.994 491.544 380.994 492.44C380.994 493.323 381.179 494.02 381.549 494.533C381.933 495.045 382.446 495.301 383.086 495.301ZM392.544 503.564C391.861 503.564 391.256 503.393 390.729 503.051C390.203 502.71 389.797 502.233 389.512 501.621C389.228 501.009 389.085 500.297 389.085 499.486C389.085 498.675 389.228 497.963 389.512 497.351C389.797 496.739 390.203 496.262 390.729 495.92C391.256 495.579 391.861 495.408 392.544 495.408C393.241 495.408 393.846 495.579 394.359 495.92C394.885 496.262 395.291 496.739 395.576 497.351C395.875 497.963 396.024 498.675 396.024 499.486C396.024 500.297 395.875 501.009 395.576 501.621C395.291 502.233 394.885 502.71 394.359 503.051C393.846 503.393 393.241 503.564 392.544 503.564ZM392.544 502.347C393.185 502.347 393.69 502.098 394.06 501.599C394.444 501.087 394.636 500.383 394.636 499.486C394.636 498.603 394.444 497.906 394.06 497.394C393.69 496.881 393.185 496.625 392.544 496.625C391.904 496.625 391.391 496.881 391.007 497.394C390.637 497.892 390.452 498.589 390.452 499.486C390.452 500.383 390.637 501.087 391.007 501.599C391.391 502.098 391.904 502.347 392.544 502.347Z" fill="white"></path><path d="M450.63 471.086V456.995L451.548 457.998H447.257V456.141H452.744V471.086H450.63ZM462.119 471.257C460.952 471.257 459.906 470.958 458.98 470.36C458.069 469.762 457.344 468.894 456.803 467.755C456.276 466.617 456.013 465.236 456.013 463.613C456.013 461.991 456.276 460.61 456.803 459.472C457.344 458.333 458.069 457.465 458.98 456.867C459.906 456.269 460.952 455.97 462.119 455.97C463.272 455.97 464.311 456.269 465.236 456.867C466.161 457.465 466.887 458.333 467.414 459.472C467.94 460.61 468.204 461.991 468.204 463.613C468.204 465.236 467.94 466.617 467.414 467.755C466.887 468.894 466.161 469.762 465.236 470.36C464.311 470.958 463.272 471.257 462.119 471.257ZM462.119 469.357C462.902 469.357 463.585 469.143 464.168 468.716C464.766 468.289 465.229 467.649 465.556 466.795C465.898 465.941 466.069 464.88 466.069 463.613C466.069 462.347 465.898 461.286 465.556 460.432C465.229 459.578 464.766 458.938 464.168 458.511C463.585 458.084 462.902 457.87 462.119 457.87C461.336 457.87 460.646 458.084 460.048 458.511C459.45 458.938 458.98 459.578 458.639 460.432C458.311 461.286 458.148 462.347 458.148 463.613C458.148 464.88 458.311 465.941 458.639 466.795C458.98 467.649 459.45 468.289 460.048 468.716C460.646 469.143 461.336 469.357 462.119 469.357ZM472.303 471.086L482.508 456.141H484.152L473.946 471.086H472.303ZM473.498 464.169C472.815 464.169 472.21 463.998 471.683 463.656C471.157 463.315 470.744 462.838 470.445 462.226C470.16 461.614 470.018 460.902 470.018 460.091C470.018 459.279 470.16 458.568 470.445 457.956C470.744 457.344 471.157 456.867 471.683 456.525C472.21 456.184 472.815 456.013 473.498 456.013C474.196 456.013 474.8 456.184 475.313 456.525C475.84 456.867 476.245 457.344 476.53 457.956C476.814 458.568 476.957 459.279 476.957 460.091C476.957 460.902 476.814 461.614 476.53 462.226C476.245 462.838 475.84 463.315 475.313 463.656C474.8 463.998 474.196 464.169 473.498 464.169ZM473.498 462.952C474.153 462.952 474.665 462.703 475.035 462.204C475.405 461.692 475.59 460.987 475.59 460.091C475.59 459.194 475.405 458.497 475.035 457.998C474.665 457.486 474.153 457.23 473.498 457.23C472.858 457.23 472.345 457.486 471.961 457.998C471.591 458.497 471.406 459.194 471.406 460.091C471.406 460.973 471.591 461.671 471.961 462.183C472.345 462.695 472.858 462.952 473.498 462.952ZM482.956 471.214C482.273 471.214 481.668 471.043 481.141 470.702C480.615 470.36 480.209 469.883 479.924 469.271C479.64 468.659 479.497 467.947 479.497 467.136C479.497 466.325 479.64 465.613 479.924 465.001C480.209 464.389 480.615 463.912 481.141 463.571C481.668 463.229 482.273 463.058 482.956 463.058C483.654 463.058 484.259 463.229 484.771 463.571C485.298 463.912 485.703 464.389 485.988 465.001C486.287 465.613 486.436 466.325 486.436 467.136C486.436 467.947 486.287 468.659 485.988 469.271C485.703 469.883 485.298 470.36 484.771 470.702C484.259 471.043 483.654 471.214 482.956 471.214ZM482.956 469.997C483.597 469.997 484.102 469.748 484.472 469.25C484.856 468.737 485.048 468.033 485.048 467.136C485.048 466.254 484.856 465.556 484.472 465.044C484.102 464.532 483.597 464.275 482.956 464.275C482.316 464.275 481.803 464.532 481.419 465.044C481.049 465.542 480.864 466.24 480.864 467.136C480.864 468.033 481.049 468.737 481.419 469.25C481.803 469.748 482.316 469.997 482.956 469.997Z" fill="white"></path><path d="M478.003 382.332V368.241L478.921 369.245H474.63V367.387H480.117V382.332H478.003ZM489.492 382.503C488.325 382.503 487.279 382.204 486.353 381.606C485.442 381.008 484.717 380.14 484.176 379.001C483.649 377.863 483.386 376.482 483.386 374.86C483.386 373.237 483.649 371.856 484.176 370.718C484.717 369.579 485.442 368.711 486.353 368.113C487.279 367.515 488.325 367.216 489.492 367.216C490.645 367.216 491.684 367.515 492.609 368.113C493.534 368.711 494.26 369.579 494.787 370.718C495.313 371.856 495.577 373.237 495.577 374.86C495.577 376.482 495.313 377.863 494.787 379.001C494.26 380.14 493.534 381.008 492.609 381.606C491.684 382.204 490.645 382.503 489.492 382.503ZM489.492 380.603C490.275 380.603 490.958 380.389 491.541 379.962C492.139 379.535 492.602 378.895 492.929 378.041C493.271 377.187 493.442 376.126 493.442 374.86C493.442 373.593 493.271 372.532 492.929 371.678C492.602 370.824 492.139 370.184 491.541 369.757C490.958 369.33 490.275 369.116 489.492 369.116C488.709 369.116 488.019 369.33 487.421 369.757C486.823 370.184 486.353 370.824 486.012 371.678C485.684 372.532 485.521 373.593 485.521 374.86C485.521 376.126 485.684 377.187 486.012 378.041C486.353 378.895 486.823 379.535 487.421 379.962C488.019 380.389 488.709 380.603 489.492 380.603ZM499.676 382.332L509.881 367.387H511.525L501.32 382.332H499.676ZM500.871 375.415C500.188 375.415 499.583 375.244 499.056 374.902C498.53 374.561 498.117 374.084 497.818 373.472C497.533 372.86 497.391 372.148 497.391 371.337C497.391 370.526 497.533 369.814 497.818 369.202C498.117 368.59 498.53 368.113 499.056 367.771C499.583 367.43 500.188 367.259 500.871 367.259C501.569 367.259 502.174 367.43 502.686 367.771C503.213 368.113 503.618 368.59 503.903 369.202C504.188 369.814 504.33 370.526 504.33 371.337C504.33 372.148 504.188 372.86 503.903 373.472C503.618 374.084 503.213 374.561 502.686 374.902C502.174 375.244 501.569 375.415 500.871 375.415ZM500.871 374.198C501.526 374.198 502.038 373.949 502.408 373.45C502.778 372.938 502.963 372.234 502.963 371.337C502.963 370.44 502.778 369.743 502.408 369.245C502.038 368.732 501.526 368.476 500.871 368.476C500.231 368.476 499.718 368.732 499.334 369.245C498.964 369.743 498.779 370.44 498.779 371.337C498.779 372.219 498.964 372.917 499.334 373.429C499.718 373.942 500.231 374.198 500.871 374.198ZM510.329 382.46C509.646 382.46 509.041 382.289 508.514 381.948C507.988 381.606 507.582 381.129 507.298 380.517C507.013 379.905 506.871 379.194 506.871 378.382C506.871 377.571 507.013 376.859 507.298 376.247C507.582 375.635 507.988 375.158 508.514 374.817C509.041 374.475 509.646 374.304 510.329 374.304C511.027 374.304 511.632 374.475 512.144 374.817C512.671 375.158 513.076 375.635 513.361 376.247C513.66 376.859 513.809 377.571 513.809 378.382C513.809 379.194 513.66 379.905 513.361 380.517C513.076 381.129 512.671 381.606 512.144 381.948C511.632 382.289 511.027 382.46 510.329 382.46ZM510.329 381.243C510.97 381.243 511.475 380.994 511.845 380.496C512.229 379.984 512.421 379.279 512.421 378.382C512.421 377.5 512.229 376.802 511.845 376.29C511.475 375.778 510.97 375.521 510.329 375.521C509.689 375.521 509.176 375.778 508.792 376.29C508.422 376.788 508.237 377.486 508.237 378.382C508.237 379.279 508.422 379.984 508.792 380.496C509.176 380.994 509.689 381.243 510.329 381.243Z" fill="white"></path></svg>